<svg xmlns="http://www.w3.org/2000/svg" viewBox="0 0 500 500">
  <!-- Background (transparent) -->
  
  <!-- AI Logo Element on Left -->
  <g fill="white">
    <!-- Brain/Circuit Node Design -->
    <circle cx="60" cy="50" r="25" fill="none" stroke="white" stroke-width="2"/>
    <circle cx="60" cy="50" r="4"/>
    
    <!-- Connection Lines -->
    <line x1="60" y1="25" x2="60" y2="15" stroke="white" stroke-width="2"/>
    <line x1="60" y1="75" x2="60" y2="85" stroke="white" stroke-width="2"/>
    <line x1="35" y1="50" x2="25" y2="50" stroke="white" stroke-width="2"/>
    <line x1="85" y1="50" x2="95" y2="50" stroke="white" stroke-width="2"/>
    
    <!-- Neural Network Nodes -->
    <circle cx="60" cy="15" r="4"/>
    <circle cx="60" cy="85" r="4"/>
    <circle cx="25" cy="50" r="4"/>
    <circle cx="95" cy="50" r="4"/>
    
    <!-- Additional Connection Lines -->
    <line x1="43" y1="33" x2="35" y2="25" stroke="white" stroke-width="2"/>
    <line x1="77" y1="33" x2="85" y2="25" stroke="white" stroke-width="2"/>
    <line x1="43" y1="67" x2="35" y2="75" stroke="white" stroke-width="2"/>
    <line x1="77" y1="67" x2="85" y2="75" stroke="white" stroke-width="2"/>
    
    <!-- Additional Nodes -->
    <circle cx="35" cy="25" r="4"/>
    <circle cx="85" cy="25" r="4"/>
    <circle cx="35" cy="75" r="4"/>
    <circle cx="85" cy="75" r="4"/>
  </g>
  
  <!-- Text "Bit Tools" on Right -->
</svg>