<!-- static/images/favicon.svg -->
<svg xmlns="http://www.w3.org/2000/svg" viewBox="0 0 64 64" width="64" height="64">
  <defs>
    <linearGradient id="favBgGrad" x1="0%" y1="0%" x2="100%" y2="100%">
       <stop offset="0%" style="stop-color:#2563eb;"/> <!-- blue-600 -->
       <stop offset="100%" style="stop-color:#3b82f6;"/> <!-- blue-500 -->
    </linearGradient>
  </defs>
  <!-- Background -->
  <rect width="64" height="64" rx="12" fill="url(#favBgGrad)"/>

  <!-- Simplified AI Brain Mark (White) -->
   <g transform="translate(4 4) scale(0.85)">
     <!-- Outline -->
     <path d="M 40 15 C 20 15 10 30 10 45 C 10 60 20 75 40 75 M 40 15 C 60 15 70 30 70 45 C 70 60 60 75 40 75"
           stroke="white" stroke-width="4.5" fill="none" stroke-linecap="round" stroke-linejoin="round"/>
     <!-- Central Node -->
     <circle cx="40" cy="50" r="7" fill="white"/>
     <!-- Connecting Lines to Central Node -->
     <line x1="25" y1="35" x2="40" y2="50" stroke="white" stroke-width="4" stroke-linecap="round"/>
     <line x1="55" y1="35" x2="40" y2="50" stroke="white" stroke-width="4" stroke-linecap="round"/>
     <line x1="28" y1="65" x2="40" y2="50" stroke="white" stroke-width="4" stroke-linecap="round"/>
     <line x1="52" y1="65" x2="40" y2="50" stroke="white" stroke-width="4" stroke-linecap="round"/>
     <!-- Outer Nodes -->
     <circle cx="25" cy="35" r="4.5" fill="white"/>
     <circle cx="55" cy="35" r="4.5" fill="white"/>
     <circle cx="28" cy="65" r="4.5" fill="white"/>
     <circle cx="52" cy="65" r="4.5" fill="white"/>
   </g>
</svg>